<svg width="32" height="32" viewBox="0 0 32 32" fill="none" xmlns="http://www.w3.org/2000/svg">
<circle cx="16" cy="16" r="16" fill="url(#paint0_linear_22_152)"/>
<path d="M10.5706 9.7464C10.6236 9.69342 10.6501 9.66693 10.6735 9.64548C11.2473 9.11817 12.1294 9.11817 12.7033 9.64548C12.7266 9.66693 12.7531 9.69342 12.8061 9.7464L13.8997 10.8401C14.5013 11.4416 14.6733 12.35 14.3334 13.1299C13.9935 13.9097 14.1655 14.8181 14.767 15.4197L16.5646 17.2173C17.1662 17.8188 18.0746 17.9908 18.8544 17.6509C19.6343 17.311 20.5427 17.483 21.1443 18.0846L22.2379 19.1782C22.2909 19.2312 22.3174 19.2577 22.3388 19.281C22.8661 19.8549 22.8661 20.737 22.3388 21.3108C22.3174 21.3342 22.2909 21.3607 22.2379 21.4137L21.5731 22.0784C21.0318 22.6198 20.2514 22.847 19.5041 22.6809C14.4119 21.5493 10.435 17.5724 9.30336 12.4803C9.13729 11.7329 9.36454 10.9525 9.90588 10.4112L10.5706 9.7464Z" stroke="white" stroke-width="1.5"/>
<defs>
<linearGradient id="paint0_linear_22_152" x1="34.3614" y1="13.2902" x2="13.7658" y2="-6.76663" gradientUnits="userSpaceOnUse">
<stop stop-color="#CDA966"/>
<stop offset="1" stop-color="#E7BC6D"/>
</linearGradient>
</defs>
</svg>
