<svg width="32" height="32" viewBox="0 0 32 32" fill="none" xmlns="http://www.w3.org/2000/svg">
<circle cx="16" cy="16" r="16" fill="url(#paint0_linear_22_151)"/>
<path d="M10.7958 22.7838L11.2366 22.1771L10.7958 22.7838ZM9.96619 21.9542L10.5729 21.5134L9.96619 21.9542ZM22.0338 21.9542L21.4271 21.5134L22.0338 21.9542ZM21.2042 22.7838L21.645 23.3906L21.2042 22.7838ZM21.2042 10.7162L21.645 10.1094L21.2042 10.7162ZM22.0338 11.5458L21.4271 11.9866L22.0338 11.5458ZM10.7958 10.7162L11.2366 11.3229L10.7958 10.7162ZM9.96619 11.5458L10.5729 11.9866L9.96619 11.5458ZM21.4134 19.0462L21.296 18.3054L21.4134 19.0462ZM18.2962 22.1634L17.5554 22.046L18.2962 22.1634ZM17.5 10.75C17.5 11.1642 17.8358 11.5 18.25 11.5C18.6642 11.5 19 11.1642 19 10.75H17.5ZM19 8.5C19 8.08579 18.6642 7.75 18.25 7.75C17.8358 7.75 17.5 8.08579 17.5 8.5H19ZM13 10.75C13 11.1642 13.3358 11.5 13.75 11.5C14.1642 11.5 14.5 11.1642 14.5 10.75H13ZM14.5 8.5C14.5 8.08579 14.1642 7.75 13.75 7.75C13.3358 7.75 13 8.08579 13 8.5H14.5ZM22.7283 19L23.4779 19.0257L22.7283 19ZM18.25 23.4783L18.2757 24.2279L18.25 23.4783ZM16 23.5V22.75C14.5771 22.75 13.5702 22.749 12.7937 22.6648C12.0312 22.5822 11.5804 22.4268 11.2366 22.1771L10.7958 22.7838L10.355 23.3906C10.997 23.857 11.7421 24.0597 12.6322 24.1561C13.5082 24.251 14.6106 24.25 16 24.25V23.5ZM9.25 16.75H8.5C8.5 18.1394 8.49897 19.2418 8.59389 20.1178C8.69032 21.0079 8.89296 21.753 9.35942 22.395L9.96619 21.9542L10.5729 21.5134C10.3232 21.1696 10.1678 20.7188 10.0852 19.9563C10.001 19.1798 10 18.1729 10 16.75H9.25ZM10.7958 22.7838L11.2366 22.1771C10.982 21.992 10.758 21.768 10.5729 21.5134L9.96619 21.9542L9.35942 22.395C9.63698 22.7771 9.97294 23.113 10.355 23.3906L10.7958 22.7838ZM22.0338 21.9542L21.4271 21.5134C21.242 21.768 21.018 21.992 20.7634 22.1771L21.2042 22.7838L21.645 23.3906C22.0271 23.113 22.363 22.7771 22.6406 22.395L22.0338 21.9542ZM22.75 16.75H23.5C23.5 15.3606 23.501 14.2582 23.4061 13.3822C23.3097 12.4921 23.107 11.747 22.6406 11.105L22.0338 11.5458L21.4271 11.9866C21.6768 12.3304 21.8322 12.7812 21.9148 13.5437C21.999 14.3202 22 15.3271 22 16.75H22.75ZM21.2042 10.7162L20.7634 11.3229C21.018 11.508 21.242 11.732 21.4271 11.9866L22.0338 11.5458L22.6406 11.105C22.363 10.7229 22.0271 10.387 21.645 10.1094L21.2042 10.7162ZM9.25 16.75H10C10 15.3271 10.001 14.3202 10.0852 13.5437C10.1678 12.7812 10.3232 12.3304 10.5729 11.9866L9.96619 11.5458L9.35942 11.105C8.89296 11.747 8.69032 12.4921 8.59389 13.3822C8.49897 14.2582 8.5 15.3606 8.5 16.75H9.25ZM10.7958 10.7162L10.355 10.1094C9.97294 10.387 9.63698 10.7229 9.35942 11.105L9.96619 11.5458L10.5729 11.9866C10.758 11.732 10.982 11.508 11.2366 11.3229L10.7958 10.7162ZM21.4134 19.0462L21.296 18.3054C19.3705 18.6104 17.8604 20.1205 17.5554 22.046L18.2962 22.1634L19.0369 22.2807C19.2402 20.997 20.247 19.9902 21.5307 19.7869L21.4134 19.0462ZM13.75 10.75H14.5V10.0217H13.75H13V10.75H13.75ZM13.75 10.0217H14.5V8.5H13.75H13V10.0217H13.75ZM16 10V9.25C15.1275 9.25 14.3732 9.24991 13.7243 9.27214L13.75 10.0217L13.7757 10.7713C14.3934 10.7501 15.1192 10.75 16 10.75V10ZM13.75 10.0217L13.7243 9.27214C12.3169 9.32036 11.2325 9.47188 10.355 10.1094L10.7958 10.7162L11.2366 11.3229C11.716 10.9746 12.3868 10.8188 13.7757 10.7713L13.75 10.0217ZM18.25 10.75H19V10.0217H18.25H17.5V10.75H18.25ZM18.25 10.0217H19V8.5H18.25H17.5V10.0217H18.25ZM16 10V10.75C16.8808 10.75 17.6066 10.7501 18.2243 10.7713L18.25 10.0217L18.2757 9.27214C17.6268 9.24991 16.8725 9.25 16 9.25V10ZM18.25 10.0217L18.2243 10.7713C19.6132 10.8188 20.284 10.9746 20.7634 11.3229L21.2042 10.7162L21.645 10.1094C20.7675 9.47188 19.6831 9.32036 18.2757 9.27214L18.25 10.0217ZM22.7283 19L22.7283 18.25C22.0735 18.25 21.6572 18.2482 21.296 18.3054L21.4134 19.0462L21.5307 19.7869C21.7464 19.7528 22.0185 19.75 22.7283 19.75L22.7283 19ZM22.75 16.75H22C22 17.6308 21.9999 18.3566 21.9787 18.9743L22.7283 19L23.4779 19.0257C23.5001 18.3768 23.5 17.6225 23.5 16.75H22.75ZM22.7283 19L21.9787 18.9743C21.9312 20.3632 21.7754 21.034 21.4271 21.5134L22.0338 21.9542L22.6406 22.395C23.2781 21.5175 23.4296 20.4331 23.4779 19.0257L22.7283 19ZM18.25 23.4783L19 23.4783C19 22.7685 19.0028 22.4964 19.0369 22.2807L18.2962 22.1634L17.5554 22.046C17.4982 22.4072 17.5 22.8235 17.5 23.4783L18.25 23.4783ZM16 23.5V24.25C16.8725 24.25 17.6268 24.2501 18.2757 24.2279L18.25 23.4783L18.2243 22.7287C17.6066 22.7499 16.8808 22.75 16 22.75V23.5ZM18.25 23.4783L18.2757 24.2279C19.6831 24.1796 20.7675 24.0281 21.645 23.3906L21.2042 22.7838L20.7634 22.1771C20.284 22.5254 19.6132 22.6812 18.2243 22.7287L18.25 23.4783Z" fill="white"/>
<path d="M13 13.75C13 14.1642 12.6642 14.5 12.25 14.5C11.8358 14.5 11.5 14.1642 11.5 13.75C11.5 13.3358 11.8358 13 12.25 13C12.6642 13 13 13.3358 13 13.75Z" fill="white"/>
<path d="M13 16.75C13 17.1642 12.6642 17.5 12.25 17.5C11.8358 17.5 11.5 17.1642 11.5 16.75C11.5 16.3358 11.8358 16 12.25 16C12.6642 16 13 16.3358 13 16.75Z" fill="white"/>
<path d="M16.75 13.75C16.75 14.1642 16.4142 14.5 16 14.5C15.5858 14.5 15.25 14.1642 15.25 13.75C15.25 13.3358 15.5858 13 16 13C16.4142 13 16.75 13.3358 16.75 13.75Z" fill="white"/>
<path d="M16.75 16.75C16.75 17.1642 16.4142 17.5 16 17.5C15.5858 17.5 15.25 17.1642 15.25 16.75C15.25 16.3358 15.5858 16 16 16C16.4142 16 16.75 16.3358 16.75 16.75Z" fill="white"/>
<path d="M16.75 19.75C16.75 20.1642 16.4142 20.5 16 20.5C15.5858 20.5 15.25 20.1642 15.25 19.75C15.25 19.3358 15.5858 19 16 19C16.4142 19 16.75 19.3358 16.75 19.75Z" fill="white"/>
<path d="M20.5 13.75C20.5 14.1642 20.1642 14.5 19.75 14.5C19.3358 14.5 19 14.1642 19 13.75C19 13.3358 19.3358 13 19.75 13C20.1642 13 20.5 13.3358 20.5 13.75Z" fill="white"/>
<path d="M20.5 16.75C20.5 17.1642 20.1642 17.5 19.75 17.5C19.3358 17.5 19 17.1642 19 16.75C19 16.3358 19.3358 16 19.75 16C20.1642 16 20.5 16.3358 20.5 16.75Z" fill="white"/>
<path d="M13 19.75C13 20.1642 12.6642 20.5 12.25 20.5C11.8358 20.5 11.5 20.1642 11.5 19.75C11.5 19.3358 11.8358 19 12.25 19C12.6642 19 13 19.3358 13 19.75Z" fill="white"/>
<defs>
<linearGradient id="paint0_linear_22_151" x1="34.3614" y1="13.2902" x2="13.7658" y2="-6.76663" gradientUnits="userSpaceOnUse">
<stop stop-color="#CDA966"/>
<stop offset="1" stop-color="#E7BC6D"/>
</linearGradient>
</defs>
</svg>
