<svg width="23" height="23" viewBox="0 0 23 23" fill="none" xmlns="http://www.w3.org/2000/svg">
<path d="M0.5 11.5C0.5 17.5751 5.42487 22.5 11.5 22.5C17.5751 22.5 22.5 17.5751 22.5 11.5C22.5 5.42487 17.5751 0.5 11.5 0.5C5.42487 0.5 0.5 5.42487 0.5 11.5Z" fill="#25D366"/>
<path fill-rule="evenodd" clip-rule="evenodd" d="M15.35 7.58125C14.3188 6.55 12.9437 6 11.5 6C8.475 6 6 8.475 6 11.5C6 12.4625 6.275 13.425 6.75625 14.25L6 17L8.88751 16.2437C9.71251 16.6562 10.6062 16.9312 11.5 16.9312C14.525 16.9312 17 14.4563 17 11.4312C17 9.9875 16.3813 8.6125 15.35 7.58125ZM11.5 16.0375C10.675 16.0375 9.85 15.8313 9.1625 15.4188L9.025 15.35L7.30625 15.8312L7.7875 14.1812L7.65 13.975C7.16875 13.2188 6.9625 12.3938 6.9625 11.5688C6.9625 9.09375 9.025 7.03125 11.5 7.03125C12.7375 7.03125 13.8375 7.5125 14.7313 8.3375C15.625 9.23125 16.0375 10.3313 16.0375 11.5688C16.0375 13.975 14.0437 16.0375 11.5 16.0375ZM13.975 12.6C13.8375 12.5313 13.15 12.1875 13.0125 12.1875C12.875 12.1188 12.8062 12.1188 12.7375 12.2563C12.6687 12.3938 12.3938 12.6687 12.325 12.8062C12.2563 12.875 12.1875 12.875 12.05 12.875C11.9125 12.8063 11.5 12.6687 10.95 12.1875C10.5375 11.8438 10.2625 11.3625 10.1938 11.225C10.125 11.0875 10.1938 11.0187 10.2625 10.95C10.3313 10.8812 10.4 10.8125 10.4688 10.7437C10.5375 10.675 10.5375 10.6063 10.6063 10.5375C10.675 10.4688 10.6063 10.4 10.6063 10.3313C10.6063 10.2625 10.3313 9.575 10.1938 9.3C10.125 9.09375 9.98751 9.09375 9.91876 9.09375C9.85001 9.09375 9.78124 9.09375 9.64374 9.09375C9.57499 9.09375 9.43749 9.09375 9.29999 9.23125C9.16249 9.36875 8.81875 9.7125 8.81875 10.4C8.81875 11.0875 9.3 11.7063 9.36875 11.8438C9.4375 11.9125 10.3312 13.3562 11.7062 13.9062C12.875 14.3875 13.0813 14.25 13.3563 14.25C13.6313 14.25 14.1812 13.9063 14.25 13.6313C14.3875 13.2875 14.3875 13.0125 14.3188 13.0125C14.25 12.6688 14.1125 12.6688 13.975 12.6Z" fill="white"/>
</svg>
