<svg width="32" height="33" viewBox="0 0 32 33" fill="none" xmlns="http://www.w3.org/2000/svg">
<circle cx="16" cy="16.5" r="16" fill="url(#paint0_linear_1_1333)"/>
<g clip-path="url(#clip0_1_1333)">
<path d="M16.75 12.6875C16.75 12.2733 16.4142 11.9375 16 11.9375C15.5858 11.9375 15.25 12.2733 15.25 12.6875H16.75ZM13.9543 17.514C13.6701 17.8154 13.6841 18.29 13.9855 18.5742C14.2869 18.8583 14.7616 18.8444 15.0457 18.543L13.9543 17.514ZM8.78148 8.35185C8.45803 8.61061 8.40559 9.08257 8.66435 9.40602C8.92311 9.72947 9.39507 9.78191 9.71852 9.52315L8.78148 8.35185ZM11.5935 8.02315C11.917 7.76439 11.9694 7.29243 11.7107 6.96898C11.4519 6.64553 10.9799 6.59309 10.6565 6.85185L11.5935 8.02315ZM22.2815 9.52315C22.6049 9.78191 23.0769 9.72947 23.3357 9.40602C23.5944 9.08257 23.542 8.61061 23.2185 8.35185L22.2815 9.52315ZM21.3435 6.85185C21.0201 6.59309 20.5481 6.64553 20.2893 6.96898C20.0306 7.29243 20.083 7.76439 20.4065 8.02315L21.3435 6.85185ZM15.4552 17.0153L14.9095 16.5008L15.4552 17.0153ZM16 12.6875H15.25V15.6433H16H16.75V12.6875H16ZM14.5 18.0285L15.0457 18.543L16.0009 17.5298L15.4552 17.0153L14.9095 16.5008L13.9543 17.514L14.5 18.0285ZM9.25 8.9375L9.71852 9.52315L11.5935 8.02315L11.125 7.4375L10.6565 6.85185L8.78148 8.35185L9.25 8.9375ZM22.75 8.9375L23.2185 8.35185L21.3435 6.85185L20.875 7.4375L20.4065 8.02315L22.2815 9.52315L22.75 8.9375ZM23.5 15.6875H22.75C22.75 19.4154 19.7279 22.4375 16 22.4375V23.1875V23.9375C20.5563 23.9375 24.25 20.2438 24.25 15.6875H23.5ZM16 23.1875V22.4375C12.2721 22.4375 9.25 19.4154 9.25 15.6875H8.5H7.75C7.75 20.2438 11.4437 23.9375 16 23.9375V23.1875ZM8.5 15.6875H9.25C9.25 11.9596 12.2721 8.9375 16 8.9375V8.1875V7.4375C11.4437 7.4375 7.75 11.1311 7.75 15.6875H8.5ZM16 8.1875V8.9375C19.7279 8.9375 22.75 11.9596 22.75 15.6875H23.5H24.25C24.25 11.1311 20.5563 7.4375 16 7.4375V8.1875ZM16 15.6433H15.25C15.25 15.9621 15.1282 16.2689 14.9095 16.5008L15.4552 17.0153L16.0009 17.5298C16.482 17.0195 16.75 16.3447 16.75 15.6433H16Z" fill="white"/>
</g>
<defs>
<linearGradient id="paint0_linear_1_1333" x1="34.3614" y1="13.7902" x2="13.7658" y2="-6.26663" gradientUnits="userSpaceOnUse">
<stop stop-color="#CDA966"/>
<stop offset="1" stop-color="#E7BC6D"/>
</linearGradient>
<clipPath id="clip0_1_1333">
<rect width="18" height="18" fill="white" transform="translate(7 7)"/>
</clipPath>
</defs>
</svg>
