<svg width="32" height="33" viewBox="0 0 32 33" fill="none" xmlns="http://www.w3.org/2000/svg">
<circle cx="16" cy="16.5" r="16" fill="url(#paint0_linear_1_1348)"/>
<path d="M10.5706 10.2464C10.6236 10.1934 10.6501 10.1669 10.6735 10.1455C11.2473 9.61817 12.1294 9.61817 12.7033 10.1455C12.7266 10.1669 12.7531 10.1934 12.8061 10.2464L13.8997 11.3401C14.5013 11.9416 14.6733 12.85 14.3334 13.6299C13.9935 14.4097 14.1655 15.3181 14.767 15.9197L16.5646 17.7173C17.1662 18.3188 18.0746 18.4908 18.8544 18.1509C19.6343 17.811 20.5427 17.983 21.1443 18.5846L22.2379 19.6782C22.2909 19.7312 22.3174 19.7577 22.3388 19.781C22.8661 20.3549 22.8661 21.237 22.3388 21.8108C22.3174 21.8342 22.2909 21.8607 22.2379 21.9137L21.5731 22.5784C21.0318 23.1198 20.2514 23.347 19.5041 23.1809C14.4119 22.0493 10.435 18.0724 9.30336 12.9803C9.13729 12.2329 9.36454 11.4525 9.90588 10.9112L10.5706 10.2464Z" stroke="white" stroke-width="1.5"/>
<defs>
<linearGradient id="paint0_linear_1_1348" x1="34.3614" y1="13.7902" x2="13.7658" y2="-6.26663" gradientUnits="userSpaceOnUse">
<stop stop-color="#CDA966"/>
<stop offset="1" stop-color="#E7BC6D"/>
</linearGradient>
</defs>
</svg>
