<svg width="32" height="33" viewBox="0 0 32 33" fill="none" xmlns="http://www.w3.org/2000/svg">
<circle cx="16" cy="16.5" r="16" fill="url(#paint0_linear_1_1322)"/>
<g clip-path="url(#clip0_1_1322)">
<path d="M18.0856 21.7443L17.492 21.2859L18.0856 21.7443ZM13.9144 21.7443L13.3208 22.2026L13.9144 21.7443ZM16 23.5V22.75V23.5ZM22 14.0573H21.25C21.25 14.9452 20.7897 16.1624 20.0372 17.5135C19.3007 18.8359 18.347 20.1786 17.492 21.2859L18.0856 21.7443L18.6792 22.2026C19.5565 21.0664 20.56 19.6576 21.3476 18.2434C22.1193 16.8579 22.75 15.3533 22.75 14.0573H22ZM13.9144 21.7443L14.508 21.2859C13.653 20.1786 12.6993 18.8359 11.9628 17.5135C11.2103 16.1624 10.75 14.9452 10.75 14.0573H10H9.25C9.25 15.3533 9.88072 16.8579 10.6524 18.2434C11.44 19.6576 12.4435 21.0664 13.3208 22.2026L13.9144 21.7443ZM10 14.0573H10.75C10.75 10.7859 13.1618 8.25 16 8.25V7.5V6.75C12.2108 6.75 9.25 10.0857 9.25 14.0573H10ZM16 7.5V8.25C18.8382 8.25 21.25 10.7859 21.25 14.0573H22H22.75C22.75 10.0857 19.7892 6.75 16 6.75V7.5ZM18.0856 21.7443L17.492 21.2859C17.0237 21.8923 16.7287 22.2703 16.469 22.5098C16.2409 22.7203 16.1186 22.75 16 22.75V23.5V24.25C16.6114 24.25 17.0799 23.9871 17.4862 23.6123C17.8609 23.2666 18.2437 22.7667 18.6792 22.2026L18.0856 21.7443ZM13.9144 21.7443L13.3208 22.2026C13.7563 22.7667 14.1391 23.2666 14.5138 23.6123C14.9201 23.9871 15.3886 24.25 16 24.25V23.5V22.75C15.8814 22.75 15.7591 22.7203 15.531 22.5098C15.2713 22.2703 14.9763 21.8923 14.508 21.2859L13.9144 21.7443ZM13.75 14.3554H13C13 16.0206 14.3322 17.3905 16 17.3905V16.6405V15.8905C15.1825 15.8905 14.5 15.2142 14.5 14.3554H13.75ZM16 16.6405V17.3905C17.6678 17.3905 19 16.0206 19 14.3554H18.25H17.5C17.5 15.2142 16.8175 15.8905 16 15.8905V16.6405ZM18.25 14.3554H19C19 12.6901 17.6678 11.3202 16 11.3202V12.0702V12.8202C16.8175 12.8202 17.5 13.4965 17.5 14.3554H18.25ZM16 12.0702V11.3202C14.3322 11.3202 13 12.6901 13 14.3554H13.75H14.5C14.5 13.4965 15.1825 12.8202 16 12.8202V12.0702Z" fill="white"/>
</g>
<defs>
<linearGradient id="paint0_linear_1_1322" x1="34.3614" y1="13.7902" x2="13.7658" y2="-6.26663" gradientUnits="userSpaceOnUse">
<stop stop-color="#CDA966"/>
<stop offset="1" stop-color="#E7BC6D"/>
</linearGradient>
<clipPath id="clip0_1_1322">
<rect width="18" height="18" fill="white" transform="translate(7 7)"/>
</clipPath>
</defs>
</svg>
