<svg width="90" height="22" viewBox="0 0 90 22" fill="none" xmlns="http://www.w3.org/2000/svg">
<path d="M8.26 10.472L4.586 16.5H0.89L5.356 9.592C4.93067 9.416 4.50533 9.15933 4.08 8.822C3.65467 8.47 3.30267 8.008 3.024 7.436C2.74533 6.84933 2.606 6.13067 2.606 5.28C2.606 3.828 3.12667 2.72067 4.168 1.958C5.20933 1.18067 6.66867 0.791999 8.546 0.791999H13.65V16.5H10.328V10.472H8.26ZM8.678 3.52C8.106 3.52 7.61467 3.586 7.204 3.718C6.808 3.85 6.5 4.06267 6.28 4.356C6.07467 4.64933 5.972 5.038 5.972 5.522C5.972 6.21133 6.19933 6.76133 6.654 7.172C7.12333 7.568 7.82733 7.766 8.766 7.766H10.328V3.52H8.678Z" fill="#FF0000"/>
<path d="M30.4809 16.5H27.1589V9.724H20.9329V16.5H17.6109V0.791999H20.9329V6.952H27.1589V0.791999H30.4809V16.5ZM46.7311 0.791999V13.728H48.8211V21.076H45.6091V16.5H35.7751V21.076H32.5631V13.728H33.7731C34.1838 12.9067 34.5798 12.0413 34.9611 11.132C35.3425 10.2227 35.6945 9.24733 36.0171 8.206C36.3545 7.16467 36.6551 6.03533 36.9191 4.818C37.1831 3.586 37.4031 2.244 37.5791 0.791999H46.7311ZM40.2191 3.564C40.1165 4.32667 39.9698 5.14067 39.7791 6.006C39.5885 6.85667 39.3611 7.72933 39.0971 8.624C38.8478 9.51867 38.5691 10.3987 38.2611 11.264C37.9531 12.1293 37.6231 12.9507 37.2711 13.728H43.4091V3.564H40.2191ZM60.2759 16.5H51.2339V0.791999H60.2759V3.52H54.5559V6.974H59.8799V9.702H54.5559V13.75H60.2759V16.5ZM76.3485 16.5H72.5645L66.8665 8.536V16.5H63.5445V0.791999H66.8665V8.404L72.4985 0.791999H76.0405L70.3205 8.338L76.3485 16.5ZM84.562 3.344C83.9313 3.344 83.3667 3.46867 82.868 3.718C82.384 3.96733 81.9733 4.32667 81.636 4.796C81.2987 5.25067 81.042 5.808 80.866 6.468C80.7047 7.128 80.624 7.86867 80.624 8.69C80.624 9.80467 80.756 10.758 81.02 11.55C81.2987 12.3273 81.7313 12.9213 82.318 13.332C82.9047 13.7427 83.6527 13.948 84.562 13.948C85.2073 13.948 85.8453 13.8747 86.476 13.728C87.1213 13.5813 87.818 13.376 88.566 13.112V15.906C87.8767 16.1847 87.1947 16.39 86.52 16.522C85.8453 16.654 85.09 16.72 84.254 16.72C82.6407 16.72 81.306 16.39 80.25 15.73C79.2087 15.0553 78.4387 14.1167 77.94 12.914C77.4413 11.6967 77.192 10.2813 77.192 8.668C77.192 7.48 77.3533 6.39467 77.676 5.412C77.9987 4.41467 78.468 3.55667 79.084 2.838C79.7147 2.11933 80.4847 1.562 81.394 1.166C82.318 0.769999 83.374 0.571999 84.562 0.571999C85.3393 0.571999 86.1167 0.674666 86.894 0.879999C87.686 1.07067 88.4413 1.33467 89.16 1.672L88.082 4.378C87.4953 4.09933 86.9013 3.85733 86.3 3.652C85.7133 3.44667 85.134 3.344 84.562 3.344Z" fill="black"/>
</svg>
