<svg width="83" height="41" viewBox="0 0 83 41" fill="none" xmlns="http://www.w3.org/2000/svg">
<path d="M14.1 24.37V28H1.92V24.37H6.18V15.28C6 15.52 5.72 15.77 5.34 16.03C4.96 16.27 4.53 16.5 4.05 16.72C3.57 16.94 3.09 17.12 2.61 17.26C2.13 17.4 1.7 17.47 1.32 17.47V13.72C1.68 13.72 2.11 13.61 2.61 13.39C3.13 13.15 3.64 12.87 4.14 12.55C4.66 12.23 5.1 11.92 5.46 11.62C5.84 11.3 6.08 11.05 6.18 10.87H10.29V24.37H14.1ZM31.7742 19.21C31.7742 20.97 31.4342 22.54 30.7542 23.92C30.0942 25.28 29.1742 26.35 27.9942 27.13C26.8342 27.91 25.5142 28.3 24.0342 28.3C22.5542 28.3 21.2242 27.91 20.0442 27.13C18.8842 26.35 17.9642 25.28 17.2842 23.92C16.6242 22.54 16.2942 20.97 16.2942 19.21C16.2942 17.45 16.6242 15.89 17.2842 14.53C17.9642 13.15 18.8842 12.07 20.0442 11.29C21.2242 10.49 22.5542 10.09 24.0342 10.09C25.5142 10.09 26.8342 10.49 27.9942 11.29C29.1742 12.07 30.0942 13.15 30.7542 14.53C31.4342 15.89 31.7742 17.45 31.7742 19.21ZM27.7242 19.21C27.7242 18.13 27.5642 17.19 27.2442 16.39C26.9442 15.57 26.5142 14.93 25.9542 14.47C25.3942 14.01 24.7542 13.78 24.0342 13.78C23.2942 13.78 22.6442 14.01 22.0842 14.47C21.5242 14.93 21.0842 15.57 20.7642 16.39C20.4642 17.19 20.3142 18.13 20.3142 19.21C20.3142 20.29 20.4642 21.23 20.7642 22.03C21.0842 22.83 21.5242 23.46 22.0842 23.92C22.6442 24.38 23.2942 24.61 24.0342 24.61C24.7542 24.61 25.3842 24.38 25.9242 23.92C26.4842 23.46 26.9242 22.83 27.2442 22.03C27.5642 21.21 27.7242 20.27 27.7242 19.21ZM50.202 19.21C50.202 20.97 49.862 22.54 49.182 23.92C48.522 25.28 47.602 26.35 46.422 27.13C45.262 27.91 43.942 28.3 42.462 28.3C40.982 28.3 39.652 27.91 38.472 27.13C37.312 26.35 36.392 25.28 35.712 23.92C35.052 22.54 34.722 20.97 34.722 19.21C34.722 17.45 35.052 15.89 35.712 14.53C36.392 13.15 37.312 12.07 38.472 11.29C39.652 10.49 40.982 10.09 42.462 10.09C43.942 10.09 45.262 10.49 46.422 11.29C47.602 12.07 48.522 13.15 49.182 14.53C49.862 15.89 50.202 17.45 50.202 19.21ZM46.152 19.21C46.152 18.13 45.992 17.19 45.672 16.39C45.372 15.57 44.942 14.93 44.382 14.47C43.822 14.01 43.182 13.78 42.462 13.78C41.722 13.78 41.072 14.01 40.512 14.47C39.952 14.93 39.512 15.57 39.192 16.39C38.892 17.19 38.742 18.13 38.742 19.21C38.742 20.29 38.892 21.23 39.192 22.03C39.512 22.83 39.952 23.46 40.512 23.92C41.072 24.38 41.722 24.61 42.462 24.61C43.182 24.61 43.812 24.38 44.352 23.92C44.912 23.46 45.352 22.83 45.672 22.03C45.992 21.21 46.152 20.27 46.152 19.21ZM70.1067 15.73V18.97H67.0167V22.36H63.3867V18.97H60.2967V15.73H63.3867V12.34H67.0167V15.73H70.1067Z" fill="black"/>
<path d="M4.242 38.14C3.64467 38.14 3.108 38.042 2.632 37.846C2.156 37.6407 1.75 37.3607 1.414 37.006C1.08733 36.6513 0.835333 36.2453 0.658 35.788C0.480667 35.3307 0.392 34.85 0.392 34.346C0.392 33.8327 0.480667 33.3473 0.658 32.89C0.835333 32.4327 1.08733 32.0267 1.414 31.672C1.75 31.3173 2.156 31.042 2.632 30.846C3.108 30.6407 3.64467 30.538 4.242 30.538C4.83933 30.538 5.37133 30.6407 5.838 30.846C6.314 31.042 6.72 31.3173 7.056 31.672C7.392 32.0267 7.644 32.4327 7.812 32.89C7.98933 33.3473 8.078 33.8327 8.078 34.346C8.078 34.85 7.98933 35.3307 7.812 35.788C7.644 36.2453 7.392 36.6513 7.056 37.006C6.72933 37.3607 6.328 37.6407 5.852 37.846C5.376 38.042 4.83933 38.14 4.242 38.14ZM2.324 34.346C2.324 34.7753 2.408 35.158 2.576 35.494C2.744 35.8207 2.97267 36.0773 3.262 36.264C3.55133 36.4507 3.878 36.544 4.242 36.544C4.59667 36.544 4.91867 36.4507 5.208 36.264C5.49733 36.068 5.726 35.8067 5.894 35.48C6.07133 35.144 6.16 34.7613 6.16 34.332C6.16 33.912 6.07133 33.534 5.894 33.198C5.726 32.862 5.49733 32.6007 5.208 32.414C4.91867 32.2273 4.59667 32.134 4.242 32.134C3.878 32.134 3.55133 32.232 3.262 32.428C2.97267 32.6147 2.744 32.876 2.576 33.212C2.408 33.5387 2.324 33.9167 2.324 34.346ZM11.0382 38V32.302H8.71423V30.664H15.2522V32.302H12.9142V38H11.0382ZM18.9212 38.112C18.1372 38.112 17.4839 37.972 16.9612 37.692C16.4386 37.412 16.0279 37.0247 15.7292 36.53L17.2412 35.844C17.3999 36.0867 17.6052 36.278 17.8572 36.418C18.1186 36.5487 18.4406 36.614 18.8232 36.614C19.2619 36.614 19.5979 36.53 19.8312 36.362C20.0739 36.1847 20.1952 35.956 20.1952 35.676C20.1952 35.4147 20.0972 35.2047 19.9012 35.046C19.7052 34.8873 19.4159 34.808 19.0332 34.808H18.2772V33.646H19.0472C19.2246 33.646 19.3739 33.6133 19.4952 33.548C19.6259 33.4733 19.7239 33.3753 19.7892 33.254C19.8639 33.1327 19.9012 32.9927 19.9012 32.834C19.9012 32.6007 19.8079 32.4093 19.6212 32.26C19.4439 32.1107 19.1592 32.036 18.7672 32.036C18.4406 32.036 18.1699 32.0967 17.9552 32.218C17.7499 32.3393 17.5772 32.5213 17.4372 32.764L16.0232 32.008C16.2846 31.5507 16.6579 31.1913 17.1432 30.93C17.6379 30.6687 18.2119 30.538 18.8652 30.538C19.3786 30.538 19.8359 30.6173 20.2372 30.776C20.6479 30.9347 20.9699 31.1633 21.2032 31.462C21.4366 31.7607 21.5532 32.134 21.5532 32.582C21.5532 32.8993 21.4739 33.2073 21.3152 33.506C21.1659 33.8047 20.9186 34.024 20.5732 34.164C21.0212 34.2947 21.3572 34.5187 21.5812 34.836C21.8146 35.1533 21.9312 35.5267 21.9312 35.956C21.9312 36.4227 21.8006 36.8193 21.5392 37.146C21.2779 37.4633 20.9232 37.706 20.4752 37.874C20.0272 38.0327 19.5092 38.112 18.9212 38.112ZM23.2485 38V30.664H25.1245V32.974H26.4125C27.2992 32.974 27.9759 33.198 28.4425 33.646C28.9092 34.094 29.1425 34.6867 29.1425 35.424C29.1425 35.9187 29.0399 36.362 28.8345 36.754C28.6385 37.146 28.3492 37.454 27.9665 37.678C27.5839 37.8927 27.1079 38 26.5385 38H23.2485ZM25.1245 36.572H26.2445C26.5059 36.572 26.7159 36.5207 26.8745 36.418C27.0332 36.3153 27.1499 36.18 27.2245 36.012C27.3085 35.844 27.3505 35.6527 27.3505 35.438C27.3505 35.2327 27.3132 35.0507 27.2385 34.892C27.1639 34.724 27.0425 34.5933 26.8745 34.5C26.7159 34.3973 26.5012 34.346 26.2305 34.346H25.1245V36.572ZM30.2905 38V30.678H32.1665V38H30.2905ZM33.8853 38V30.664H37.9733C38.4773 30.664 38.8833 30.748 39.1913 30.916C39.5086 31.084 39.7419 31.3033 39.8913 31.574C40.0406 31.8447 40.1153 32.134 40.1153 32.442C40.1153 32.8527 40.0219 33.212 39.8353 33.52C39.6579 33.828 39.3779 34.066 38.9953 34.234C39.4246 34.3553 39.7746 34.5653 40.0453 34.864C40.3159 35.1533 40.4513 35.536 40.4513 36.012C40.4513 36.4693 40.3439 36.8473 40.1293 37.146C39.9146 37.4353 39.6066 37.65 39.2053 37.79C38.8039 37.93 38.3279 38 37.7773 38H33.8853ZM35.6633 36.726H37.7213C37.8893 36.726 38.0433 36.684 38.1833 36.6C38.3233 36.516 38.4306 36.404 38.5053 36.264C38.5893 36.124 38.6313 35.97 38.6313 35.802C38.6313 35.6247 38.5939 35.4707 38.5193 35.34C38.4446 35.2 38.3373 35.0927 38.1973 35.018C38.0666 34.934 37.9126 34.892 37.7353 34.892H35.6633V36.726ZM35.6633 33.716H37.4973C37.6653 33.716 37.8146 33.674 37.9453 33.59C38.0759 33.506 38.1739 33.394 38.2393 33.254C38.3139 33.114 38.3513 32.96 38.3513 32.792C38.3513 32.5493 38.2719 32.3487 38.1133 32.19C37.9639 32.022 37.7633 31.938 37.5113 31.938H35.6633V33.716ZM45.2029 38.14C44.6056 38.14 44.0689 38.042 43.5929 37.846C43.1169 37.6407 42.7109 37.3607 42.3749 37.006C42.0483 36.6513 41.7963 36.2453 41.6189 35.788C41.4416 35.3307 41.3529 34.85 41.3529 34.346C41.3529 33.8327 41.4416 33.3473 41.6189 32.89C41.7963 32.4327 42.0483 32.0267 42.3749 31.672C42.7109 31.3173 43.1169 31.042 43.5929 30.846C44.0689 30.6407 44.6056 30.538 45.2029 30.538C45.8003 30.538 46.3323 30.6407 46.7989 30.846C47.2749 31.042 47.6809 31.3173 48.0169 31.672C48.3529 32.0267 48.6049 32.4327 48.7729 32.89C48.9503 33.3473 49.0389 33.8327 49.0389 34.346C49.0389 34.85 48.9503 35.3307 48.7729 35.788C48.6049 36.2453 48.3529 36.6513 48.0169 37.006C47.6903 37.3607 47.2889 37.6407 46.8129 37.846C46.3369 38.042 45.8003 38.14 45.2029 38.14ZM43.2849 34.346C43.2849 34.7753 43.3689 35.158 43.5369 35.494C43.7049 35.8207 43.9336 36.0773 44.2229 36.264C44.5123 36.4507 44.8389 36.544 45.2029 36.544C45.5576 36.544 45.8796 36.4507 46.1689 36.264C46.4583 36.068 46.6869 35.8067 46.8549 35.48C47.0323 35.144 47.1209 34.7613 47.1209 34.332C47.1209 33.912 47.0323 33.534 46.8549 33.198C46.6869 32.862 46.4583 32.6007 46.1689 32.414C45.8796 32.2273 45.5576 32.134 45.2029 32.134C44.8389 32.134 44.5123 32.232 44.2229 32.428C43.9336 32.6147 43.7049 32.876 43.5369 33.212C43.3689 33.5387 43.2849 33.9167 43.2849 34.346ZM50.3052 38V30.664H54.3932C54.8972 30.664 55.3032 30.748 55.6112 30.916C55.9285 31.084 56.1618 31.3033 56.3112 31.574C56.4605 31.8447 56.5352 32.134 56.5352 32.442C56.5352 32.8527 56.4418 33.212 56.2552 33.52C56.0778 33.828 55.7978 34.066 55.4152 34.234C55.8445 34.3553 56.1945 34.5653 56.4652 34.864C56.7358 35.1533 56.8712 35.536 56.8712 36.012C56.8712 36.4693 56.7638 36.8473 56.5492 37.146C56.3345 37.4353 56.0265 37.65 55.6252 37.79C55.2238 37.93 54.7478 38 54.1972 38H50.3052ZM52.0832 36.726H54.1412C54.3092 36.726 54.4632 36.684 54.6032 36.6C54.7432 36.516 54.8505 36.404 54.9252 36.264C55.0092 36.124 55.0512 35.97 55.0512 35.802C55.0512 35.6247 55.0138 35.4707 54.9392 35.34C54.8645 35.2 54.7572 35.0927 54.6172 35.018C54.4865 34.934 54.3325 34.892 54.1552 34.892H52.0832V36.726ZM52.0832 33.716H53.9172C54.0852 33.716 54.2345 33.674 54.3652 33.59C54.4958 33.506 54.5938 33.394 54.6592 33.254C54.7338 33.114 54.7712 32.96 54.7712 32.792C54.7712 32.5493 54.6918 32.3487 54.5332 32.19C54.3838 32.022 54.1832 31.938 53.9312 31.938H52.0832V33.716Z" fill="black"/>
</svg>
